<!-- icon666.com - MILLIONS vector ICONS FREE --><svg id="Layer_1" enable-background="new 0 0 512 512" viewBox="0 0 512 512" xmlns="http://www.w3.org/2000/svg"><g><path d="m222.641 369.631c8.906 8.922 20.752 13.836 33.358 13.836 12.587 0 24.423-4.901 33.33-13.805l90.888-90.888c18.374-18.377 18.374-48.278-.002-66.657-8.902-8.901-20.739-13.804-33.328-13.804s-24.425 4.902-33.327 13.805l-10.426 10.427-.002-175.411c0-25.989-21.144-47.134-47.132-47.134-25.99 0-47.135 21.145-47.135 47.134v175.406l-10.423-10.422c-8.903-8.903-20.741-13.807-33.332-13.807-12.589 0-24.424 4.902-33.326 13.804-18.378 18.377-18.378 48.28 0 66.657zm-69.643-136.303c3.235-3.235 7.537-5.017 12.113-5.017 4.578 0 8.881 1.782 12.119 5.021l36.029 36.027c4.29 4.289 10.742 5.571 16.347 3.251 5.605-2.322 9.26-7.792 9.26-13.858v-211.618c-.001-9.447 7.686-17.134 17.134-17.134 9.446 0 17.132 7.687 17.132 17.134l.002 211.625c0 6.067 3.655 11.537 9.26 13.858 5.606 2.322 12.058 1.038 16.347-3.252l36.032-36.034c3.236-3.235 7.538-5.018 12.114-5.018 4.577 0 8.88 1.782 12.115 5.017 6.68 6.682 6.68 17.552.001 24.232l-90.884 90.884c-3.239 3.237-7.544 5.021-12.12 5.021-4.582 0-8.888-1.786-12.134-5.039l-90.867-90.868c-6.68-6.681-6.68-17.551 0-24.232z" fill="#000000" style="fill: rgb(255, 250, 250);"></path><path d="m464.867 321.333c-25.989 0-47.134 21.145-47.134 47.134v49.267h-323.466v-49.267c0-25.989-21.144-47.134-47.133-47.134-25.99 0-47.134 21.145-47.134 47.134v96.4c0 25.989 21.144 47.133 47.134 47.133h417.733c25.989 0 47.133-21.144 47.133-47.133v-96.4c0-25.989-21.144-47.134-47.133-47.134zm17.133 143.534c0 9.447-7.686 17.133-17.133 17.133h-417.733c-9.448 0-17.134-7.686-17.134-17.133v-96.4c0-9.447 7.686-17.134 17.134-17.134 9.447 0 17.133 7.687 17.133 17.134v64.267c0 8.284 6.716 15 15 15h353.467c8.284 0 15-6.716 15-15v-64.267c0-9.447 7.687-17.134 17.134-17.134s17.132 7.687 17.132 17.134z" fill="#000000" style="fill: rgb(255, 250, 250);"></path></g></svg>